<svg width="208" height="338" viewBox="0 0 208 338" fill="none" xmlns="http://www.w3.org/2000/svg">
<path d="M54.3499 280.492H53.2249L53.0999 279.367C52.5999 275.742 52.0999 272.617 51.7249 269.867C49.8499 257.242 49.0999 251.992 52.8499 245.867C56.8499 239.617 62.3499 235.617 67.7249 231.867C73.3499 227.867 79.2249 223.742 83.2249 216.742C87.0999 210.117 86.8499 202.742 82.7249 197.492C77.7249 191.242 68.4749 189.492 57.8499 192.867C51.4749 194.867 47.3499 196.867 44.3499 198.492C35.4749 202.992 34.8499 201.992 24.0999 185.242C22.9749 183.492 21.7249 181.617 20.3499 179.492L19.7249 178.617L20.5999 177.867C42.8499 159.242 69.9749 153.492 93.3499 162.492C110.475 169.117 121.975 182.242 124.1 197.867C126.6 215.617 116.725 233.867 96.2249 249.367C82.9749 259.367 83.4749 266.242 83.8499 270.742C84.0999 272.992 84.2249 274.992 82.7249 276.742C80.3499 279.617 73.4749 280.492 54.3499 280.492ZM67.9749 188.867C74.9749 188.867 80.9749 191.367 84.7249 196.117C89.4749 202.117 89.8499 210.617 85.4749 218.117C81.2249 225.492 75.0999 229.867 69.2249 233.992C63.8499 237.867 58.7249 241.492 54.9749 247.242C51.5999 252.492 52.3499 257.117 54.0999 269.492C54.4749 271.992 54.8499 274.742 55.3499 277.867C71.8499 277.867 79.0999 276.992 80.9749 274.992C81.7249 274.242 81.5999 272.992 81.4749 270.992C81.0999 265.867 80.3499 258.242 94.8499 247.367C114.6 232.492 124.1 215.117 121.725 198.242C119.725 183.492 108.725 170.992 92.4749 164.742C70.2249 156.242 44.4749 161.492 23.0999 178.992C24.2249 180.742 25.2249 182.367 26.2249 183.742C31.3499 191.742 34.2249 196.117 36.3499 197.492C37.9749 198.617 39.3499 197.992 43.3499 195.992C46.4749 194.367 50.7249 192.242 57.2249 190.242C60.9749 189.492 64.5999 188.867 67.9749 188.867Z" fill="#00B8AD"/>
<path d="M66.2249 332.117C56.4749 332.117 45.9749 325.992 45.9749 312.367C45.9749 298.867 56.4749 292.742 66.2249 292.742C76.3499 292.742 86.5999 299.492 86.5999 312.367C86.5999 318.492 84.3499 323.617 80.2249 327.117C76.5999 330.367 71.5999 332.117 66.2249 332.117ZM66.2249 295.242C57.7249 295.242 48.4749 300.617 48.4749 312.367C48.4749 324.242 57.7249 329.617 66.2249 329.617C74.8499 329.617 84.0999 324.242 84.0999 312.367C84.2249 300.617 74.8499 295.242 66.2249 295.242Z" fill="#00B8AD"/>
<path d="M54.3499 285.992H48.5999L47.8499 280.242C47.3499 276.867 46.9749 273.867 46.5999 271.242V270.867C44.5999 257.617 43.5999 250.992 48.5999 243.242C48.9749 242.617 49.3499 242.117 49.7249 241.492L51.7249 242.992C51.3499 243.492 50.9749 243.992 50.5999 244.617C46.0999 251.617 47.0999 257.992 48.9749 270.617V270.992C49.3499 273.617 49.8499 276.617 50.3499 280.117L50.8499 283.742H54.4749C74.9749 283.742 81.8499 282.742 85.0999 279.117C86.3499 277.742 86.9749 276.117 87.0999 273.992L89.5999 274.117C89.4749 276.742 88.5999 278.992 86.9749 280.742C82.9749 284.867 76.2249 285.992 54.3499 285.992Z" fill="#00B8AD"/>
<path d="M83.0999 208.742L80.5999 208.492C80.5999 208.117 80.7249 207.617 80.7249 207.242C80.7249 205.492 80.2249 203.742 79.4749 202.242C77.2249 198.492 72.4749 196.492 66.4749 196.867L66.3499 194.367C73.3499 193.867 78.9749 196.367 81.5999 200.992C82.7249 202.867 83.2249 204.992 83.2249 207.242C83.0999 207.742 83.0999 208.242 83.0999 208.742Z" fill="#00B8AD"/>
<path d="M38.0999 206.367C31.3499 206.367 28.0999 201.492 19.7249 188.367L19.5999 188.242C18.4749 186.492 17.3499 184.742 15.9749 182.617L12.7249 177.617L17.2249 173.867C27.9749 164.867 39.5999 158.742 51.8499 155.492L52.4749 157.867C40.5999 160.992 29.2249 166.992 18.8499 175.742L15.9749 178.117L17.9749 181.242C19.3499 183.242 20.4749 185.117 21.5999 186.867L20.5999 187.617L21.5999 186.992C29.7249 199.617 32.4749 203.867 37.8499 203.867C39.7249 203.867 41.4749 203.242 43.5999 202.242L44.7249 204.492C42.4749 205.617 40.4749 206.367 38.0999 206.367Z" fill="#00B8AD"/>
<path d="M115.85 238.742L113.975 237.117C122.85 226.492 127.6 214.867 127.6 203.617C127.6 200.617 127.225 197.742 126.6 194.742L129.1 194.242C129.725 197.367 130.1 200.492 130.1 203.617C130.1 215.492 125.1 227.617 115.85 238.742Z" fill="#00B8AD"/>
<path d="M66.3499 337.492C53.4749 337.492 40.5999 328.867 40.5999 312.367C40.5999 309.367 41.0999 306.492 41.9749 303.867L44.3499 304.617C43.5999 306.992 43.0999 309.617 43.0999 312.367C43.0999 327.242 54.7249 334.992 66.2249 334.992L66.3499 337.492ZM89.3499 324.117L87.0999 322.992C88.7249 319.867 89.4749 316.242 89.4749 312.367C89.4749 307.242 88.0999 302.742 85.3499 298.992L87.3499 297.492C90.3499 301.617 91.8499 306.617 91.8499 312.242C92.0999 316.742 91.2249 320.617 89.3499 324.117Z" fill="#00B8AD"/>
<path d="M159.725 194.117H158.6L158.475 192.992C158.225 190.867 157.85 188.992 157.6 187.367C156.475 179.742 155.975 176.617 158.35 172.742C160.725 168.992 164.1 166.617 167.35 164.242C170.85 161.742 174.1 159.492 176.35 155.367C178.475 151.617 178.475 147.492 176.1 144.492C173.35 140.992 167.975 139.992 161.85 141.867C158.1 142.992 155.725 144.242 153.975 145.117C148.35 147.992 147.6 146.992 141.225 137.117C140.6 136.117 139.85 134.992 138.975 133.742L138.35 132.867L139.225 132.117C152.6 120.992 168.85 117.492 182.975 122.867C193.35 126.867 200.225 134.867 201.6 144.367C203.1 155.117 197.1 166.117 184.85 175.367C177.225 181.117 177.475 184.867 177.725 187.617C177.85 188.992 177.975 190.367 176.85 191.492C175.35 193.617 171.35 194.117 159.725 194.117ZM167.85 138.742C172.225 138.742 175.85 140.242 178.225 143.242C181.225 146.992 181.35 152.242 178.725 156.867C176.1 161.367 172.475 163.992 168.975 166.492C165.85 168.742 162.85 170.867 160.725 174.242C158.85 177.242 159.225 179.867 160.35 187.117C160.6 188.492 160.725 189.992 160.975 191.742C167.6 191.742 174.225 191.492 175.35 190.242C175.6 189.867 175.6 189.367 175.475 188.242C175.225 185.367 174.85 180.367 183.6 173.742C195.1 164.992 200.725 154.867 199.35 144.992C198.1 136.492 191.725 129.117 182.35 125.492C169.475 120.492 154.475 123.617 141.975 133.617C142.6 134.492 143.1 135.367 143.6 136.117C146.6 140.742 148.225 143.367 149.475 144.117C150.225 144.617 150.725 144.367 153.1 143.242C154.975 142.242 157.475 140.992 161.35 139.742C163.475 138.992 165.725 138.742 167.85 138.742Z" fill="#003359"/>
<path d="M166.725 224.742C160.475 224.742 154.225 220.492 154.225 212.492C154.225 204.492 160.475 200.242 166.725 200.242C172.975 200.242 179.35 204.492 179.35 212.492C179.35 220.617 173.1 224.742 166.725 224.742ZM166.725 202.867C161.85 202.867 156.725 205.867 156.725 212.617C156.725 219.242 161.975 222.367 166.725 222.367C171.6 222.367 176.85 219.367 176.85 212.617C176.85 205.867 171.6 202.867 166.725 202.867Z" fill="#003359"/>
<path d="M159.725 199.617H153.975L153.225 193.867C152.975 191.742 152.725 189.992 152.475 188.367C151.225 180.242 150.6 175.492 153.975 169.992C156.975 165.242 160.85 162.492 164.35 159.992L165.6 159.117L167.1 161.117L165.85 161.992C162.6 164.367 158.85 166.992 156.1 171.242C153.1 175.992 153.725 179.867 154.85 187.867C155.1 189.617 155.35 191.367 155.6 193.492L156.1 197.117H159.725C171.35 197.117 176.6 196.617 179.225 193.867C181.1 191.742 180.975 189.367 180.85 187.742C180.6 185.117 180.85 182.617 186.475 178.367L187.975 180.367C183.1 184.117 183.225 185.867 183.35 187.617C183.475 189.367 183.85 192.742 181.1 195.617C177.85 198.992 172.725 199.617 159.725 199.617Z" fill="#003359"/>
<path d="M174.85 151.992L172.475 151.367C172.6 150.992 172.6 150.492 172.6 150.117C172.6 149.492 172.475 148.992 172.225 148.492C171.975 148.117 171.725 147.867 171.35 147.492L172.85 145.492C173.475 145.992 174.1 146.492 174.475 147.242C174.975 148.117 175.225 149.117 175.225 150.117C175.1 150.742 174.975 151.367 174.85 151.992Z" fill="#003359"/>
<path d="M149.975 152.242C144.475 152.242 142.1 148.492 136.725 140.367L131.35 131.992L135.85 128.242C146.85 118.992 159.725 114.492 172.6 115.367L172.475 117.867C160.225 116.992 147.975 121.242 137.475 130.117L134.6 132.492L138.85 138.992C143.85 146.867 145.85 149.742 149.975 149.742C151.85 149.742 153.475 148.992 155.35 147.992C157.1 147.117 159.35 145.992 162.85 144.867C164.1 144.492 165.225 144.242 166.475 144.117L166.725 146.617C165.725 146.742 164.725 146.992 163.6 147.242C160.35 148.242 158.225 149.367 156.6 150.242C154.6 151.242 152.475 152.242 149.975 152.242Z" fill="#003359"/>
<path d="M203.1 163.617L200.975 162.367C203.6 157.617 204.975 152.742 204.975 147.867C204.975 145.867 204.725 143.867 204.35 141.992L206.725 141.367C207.225 143.492 207.475 145.742 207.475 147.867C207.35 153.242 205.975 158.492 203.1 163.617Z" fill="#003359"/>
<path d="M166.725 230.242C157.85 230.242 148.725 224.242 148.725 212.617C148.725 201.117 157.725 194.992 166.725 194.992C175.475 194.992 184.725 201.117 184.725 212.617C184.725 215.992 183.85 219.117 182.225 221.867L180.1 220.617C181.475 218.367 182.225 215.617 182.225 212.617C182.225 202.867 174.225 197.492 166.725 197.492C159.1 197.492 151.225 202.617 151.225 212.617C151.225 222.492 158.975 227.742 166.725 227.742V230.242Z" fill="#003359"/>
<path d="M91.2249 128.367H90.0999L89.9749 127.242C89.4749 123.617 88.9749 120.367 88.5999 117.617C86.5999 104.742 85.8499 99.3674 89.8499 93.1174C93.9749 86.7424 99.5999 82.7424 104.975 78.8674C110.725 74.7424 116.725 70.4924 120.725 63.3674C124.6 56.6174 124.475 48.9923 120.225 43.7423C115.1 37.3673 105.6 35.6173 94.8499 38.9923C88.3499 40.9923 84.2249 43.1173 81.0999 44.7423C72.0999 49.3673 71.4749 48.3673 60.4749 31.2423C59.3499 29.4923 58.0999 27.4923 56.7249 25.3673L56.0999 24.4923L56.9749 23.7423C79.4749 4.86734 107.225 -1.00766 131.1 8.11734C148.475 14.8673 160.225 28.3673 162.475 44.2424C164.975 62.3674 154.975 80.9923 133.975 96.7423C120.35 106.992 120.975 113.992 121.35 118.617C121.6 120.867 121.725 122.992 120.225 124.617C117.725 127.492 110.6 128.367 91.2249 128.367ZM105.1 34.8673C112.225 34.8673 118.35 37.3673 122.225 42.2423C127.1 48.3673 127.35 56.9923 122.975 64.7424C118.6 72.3673 112.475 76.7423 106.475 80.9923C100.975 84.8673 95.7249 88.6174 91.9749 94.6174C88.4749 99.9924 89.2249 104.742 91.0999 117.367C91.4749 119.867 91.8499 122.742 92.3499 125.992C109.225 125.992 116.6 125.117 118.475 123.117C119.225 122.242 119.225 121.117 118.975 118.992C118.475 113.867 117.85 105.992 132.6 94.9924C152.725 79.8674 162.475 61.9924 160.1 44.8674C157.975 29.8673 146.85 17.1173 130.225 10.7423C107.6 1.99234 81.0999 7.49234 59.3499 25.2423C60.4749 26.9923 61.5999 28.6173 62.4749 30.1173C67.7249 38.2423 70.5999 42.7424 72.7249 44.2424C74.3499 45.3674 75.7249 44.7423 79.8499 42.7423C82.9749 41.1173 87.3499 38.9923 93.9749 36.8673C97.9749 35.4923 101.6 34.8673 105.1 34.8673Z" fill="#FFB412"/>
<path d="M103.35 180.992C93.3499 180.992 82.7249 174.742 82.7249 160.867C82.7249 147.117 93.4749 140.867 103.35 140.867C113.725 140.867 124.1 147.742 124.1 160.867C124.1 174.117 113.725 180.992 103.35 180.992ZM103.35 143.367C94.5999 143.367 85.2249 148.867 85.2249 160.867C85.2249 172.992 94.5999 178.492 103.35 178.492C112.1 178.492 121.6 172.992 121.6 160.867C121.6 148.867 112.1 143.367 103.35 143.367Z" fill="#FFB412"/>
<path d="M91.2249 134.117H85.0999L84.2249 127.992C83.7249 124.367 83.2249 121.242 82.8499 118.367C80.8499 104.742 79.8499 97.9922 84.8499 89.9922C84.9749 89.7422 85.0999 89.6172 85.2249 89.3672L87.3499 90.7422L86.9749 91.2422C82.3499 98.4922 83.3499 104.992 85.3499 117.992C85.7249 120.742 86.2249 123.992 86.7249 127.617L87.2249 131.492H91.2249C112.225 131.492 119.35 130.367 122.725 126.742C123.725 125.617 124.35 124.367 124.725 122.742L127.225 123.242C126.85 125.242 125.975 126.992 124.6 128.492C120.475 132.992 113.35 134.117 91.2249 134.117Z" fill="#FFB412"/>
<path d="M120.225 55.1172L117.725 54.8672C117.725 54.3672 117.85 53.9922 117.85 53.4922C117.85 51.7422 117.475 49.9922 116.6 48.4922C114.35 44.4922 109.1 42.4922 102.725 43.2422L102.475 40.7422C109.85 39.9922 115.975 42.4922 118.725 47.2422C119.85 49.1172 120.35 51.2422 120.35 53.4922C120.225 53.9922 120.225 54.6172 120.225 55.1172Z" fill="#FFB412"/>
<path d="M74.4749 52.8672C67.4749 52.8672 64.2249 47.8672 55.4749 34.3672C54.3499 32.6172 53.0999 30.6172 51.7249 28.4922L48.3499 23.2422L53.0999 19.2422C63.7249 10.4922 75.2249 4.24219 87.3499 0.867188L87.9749 3.24219C76.2249 6.49219 64.9749 12.4922 54.7249 21.1172L51.5999 23.7422L53.8499 27.1172C55.2249 29.2422 56.4749 31.2422 57.5999 32.9922C65.9749 45.9922 68.7249 50.3672 74.4749 50.3672C75.8499 50.3672 77.3499 49.9922 79.0999 49.2422L80.0999 51.4922C78.0999 52.4922 76.3499 52.8672 74.4749 52.8672Z" fill="#FFB412"/>
<path d="M153.725 86.2422L151.85 84.6172C161.225 73.6172 166.225 61.4922 166.225 49.7422C166.225 46.7422 165.85 43.6172 165.225 40.6172L167.725 40.1172C168.475 43.2422 168.725 46.4922 168.725 49.7422C168.725 62.1172 163.6 74.7422 153.725 86.2422Z" fill="#FFB412"/>
<path d="M103.475 186.742C90.2249 186.742 76.8499 177.867 76.8499 160.867C76.8499 157.742 77.3499 154.742 78.2249 151.992L80.5999 152.742C79.7249 155.242 79.3499 157.867 79.3499 160.742C79.3499 176.117 91.3499 184.117 103.35 184.117L103.475 186.742ZM127.1 172.992L124.85 171.867C126.475 168.617 127.35 164.867 127.35 160.867C127.35 155.617 125.975 150.867 123.1 147.117L125.1 145.617C128.225 149.867 129.725 154.992 129.725 160.867C129.85 165.367 128.975 169.367 127.1 172.992Z" fill="#FFB412"/>
<path d="M26.8499 112.492H25.7249L25.5999 111.492C25.3499 109.492 25.0999 107.867 24.8499 106.242C23.8499 99.367 23.3499 96.242 25.5999 92.742C27.8499 89.242 30.9749 86.992 33.8499 84.867C37.0999 82.617 40.0999 80.492 42.2249 76.742C44.2249 73.242 44.0999 69.492 41.9749 66.867C39.3499 63.617 34.4749 62.742 28.9749 64.492C25.5999 65.617 23.3499 66.742 21.7249 67.492C16.3499 70.242 15.7249 69.242 9.84992 59.992C9.22492 58.992 8.59991 57.992 7.84991 56.867L7.22491 55.992L8.09992 55.242C20.4749 44.867 35.5999 41.742 48.5999 46.742C58.2249 50.367 64.5999 57.867 65.8499 66.617C67.2249 76.617 61.7249 86.867 50.3499 95.367C43.3499 100.742 43.5999 104.117 43.8499 106.617C43.9749 107.867 44.0999 109.242 43.0999 110.367C41.4749 111.992 37.7249 112.492 26.8499 112.492ZM34.3499 60.992C38.3499 60.992 41.8499 62.367 43.9749 65.117C46.7249 68.617 46.9749 73.492 44.4749 77.867C42.0999 81.992 38.7249 84.492 35.4749 86.742C32.5999 88.867 29.8499 90.742 27.8499 93.867C26.0999 96.617 26.4749 99.117 27.4749 105.742C27.5999 106.992 27.8499 108.367 28.0999 109.867C34.2249 109.867 40.2249 109.617 41.2249 108.492C41.4749 108.242 41.4749 107.617 41.3499 106.742C41.0999 103.992 40.7249 99.492 48.8499 93.242C59.4749 85.242 64.7249 75.867 63.3499 66.742C62.2249 58.867 56.3499 52.117 47.5999 48.867C35.7249 44.242 21.8499 47.117 10.4749 56.242C10.9749 56.992 11.4749 57.742 11.8499 58.492C14.5999 62.867 16.2249 65.242 17.2249 65.867C17.8499 66.242 18.2249 66.117 20.4749 64.992C22.2249 64.117 24.5999 62.867 28.2249 61.742C30.3499 61.367 32.4749 60.992 34.3499 60.992Z" fill="#0087EB"/>
<path d="M26.8499 117.742H21.2249L20.4749 112.117C20.2249 110.242 19.9749 108.492 19.7249 106.992C18.5999 99.4922 17.9749 94.9922 21.2249 89.8672C23.9749 85.4922 27.7249 82.8672 30.8499 80.6172C32.0999 79.7422 33.2249 78.9922 34.2249 78.1172L35.8499 79.9922C34.7249 80.8672 33.5999 81.7422 32.3499 82.6172C29.3499 84.7422 25.8499 87.2422 23.3499 91.2422C20.5999 95.6172 21.0999 99.2422 22.2249 106.617C22.4749 108.117 22.7249 109.867 22.9749 111.742L23.4749 115.117H26.9749C37.7249 115.117 42.5999 114.742 45.0999 111.992C46.8499 109.992 46.7249 107.617 46.5999 106.242C46.3499 103.742 46.5999 101.492 52.0999 97.3672C52.7249 96.8672 53.4749 96.3672 54.0999 95.8672L55.7249 97.7422C55.0999 98.2422 54.3499 98.8672 53.7249 99.3672C48.9749 102.992 49.0999 104.492 49.2249 105.992C49.3499 107.617 49.5999 110.867 47.0999 113.617C43.7249 117.117 38.9749 117.742 26.8499 117.742Z" fill="#0087EB"/>
<path d="M40.7249 73.4922L38.3499 72.7422C38.4749 72.3672 38.4749 71.9922 38.4749 71.6172C38.4749 71.1172 38.3499 70.6172 38.0999 70.2422L40.0999 68.7422C40.0999 68.8672 40.2249 68.8672 40.2249 68.9922C40.7249 69.7422 40.8499 70.6172 40.8499 71.6172C40.9749 72.2422 40.9749 72.8672 40.7249 73.4922Z" fill="#0087EB"/>
<path d="M17.8499 73.9922C12.5999 73.9922 10.3499 70.4922 5.34991 62.8672L5.22491 62.6172C4.59991 61.7422 3.97491 60.7422 3.34991 59.7422L0.224915 54.9922L4.59991 51.3672C13.9749 43.4922 24.8499 39.3672 35.8499 39.3672C37.8499 39.3672 39.8499 39.4922 41.8499 39.7422L41.4749 42.2422C39.5999 41.9922 37.7249 41.8672 35.8499 41.8672C25.4749 41.8672 15.2249 45.8672 6.22491 53.3672L3.59991 55.3672L5.47491 58.2422C6.22491 59.2422 6.84991 60.2422 7.34991 61.1172L7.47491 61.3672C12.4749 69.1172 14.0999 71.3672 17.8499 71.3672C19.5999 71.3672 21.0999 70.6172 22.8499 69.7422C24.4749 68.8672 26.4749 67.8672 29.7249 66.8672C32.0999 66.1172 34.3499 65.8672 36.2249 66.2422L35.7249 68.7422C34.3499 68.4922 32.4749 68.6172 30.4749 69.2422C27.4749 70.1172 25.5999 71.1172 23.9749 71.9922C22.2249 72.9922 20.3499 73.9922 17.8499 73.9922Z" fill="#0087EB"/>
<path d="M67.9749 82.9922L65.7249 81.8672C67.7249 77.8672 68.7249 73.7422 68.7249 69.7422C68.7249 67.8672 68.4749 65.9922 68.0999 64.2422L70.4749 63.6172C70.9749 65.6172 71.2249 67.6172 71.2249 69.7422C71.2249 74.1172 70.0999 78.6172 67.9749 82.9922Z" fill="#0087EB"/>
<path d="M33.4749 154.117C25.0999 154.117 16.5999 148.367 16.5999 137.492C16.5999 126.617 25.0999 120.867 33.4749 120.867C41.7249 120.867 50.4749 126.617 50.4749 137.492C50.4749 142.867 48.2249 147.492 44.0999 150.617L42.5999 148.617C44.9749 146.742 47.9749 143.367 47.9749 137.492C47.9749 128.367 40.4749 123.367 33.4749 123.367C26.3499 123.367 19.0999 128.242 19.0999 137.492C19.0999 146.742 26.3499 151.617 33.4749 151.617V154.117Z" fill="#0087EB"/>
<path d="M33.4749 148.992C27.5999 148.992 21.7249 145.117 21.7249 137.617C21.7249 130.117 27.5999 126.242 33.4749 126.242C39.3499 126.242 45.2249 130.117 45.2249 137.617C45.2249 144.992 39.2249 148.992 33.4749 148.992ZM33.4749 128.617C29.0999 128.617 24.2249 131.367 24.2249 137.492C24.2249 143.617 28.9749 146.367 33.4749 146.367C37.9749 146.367 42.7249 143.617 42.7249 137.492C42.7249 134.742 41.7249 132.492 39.8499 130.867C38.0999 129.492 35.8499 128.617 33.4749 128.617Z" fill="#0087EB"/>
</svg>
