<svg width="264" height="342" viewBox="0 0 264 342" fill="none" xmlns="http://www.w3.org/2000/svg">
<g clip-path="url(#clip0)">
<path d="M150.937 338.797C140.843 340.864 130.404 341.94 119.663 341.94C112.416 341.94 105.341 341.466 98.353 340.476C97.5334 330.918 96.6275 323.857 95.5922 322.35C94.4275 320.67 87.1805 326.784 77.9922 336.3C65.2236 332.769 53.1452 327.645 42.0157 321.187C39.0393 319.465 36.1491 317.657 33.302 315.719C31.4903 314.514 29.7216 313.265 27.953 311.973C42.2746 290.661 54.7844 272.491 54.7844 272.491C54.7844 272.491 139.204 242.18 146.02 266.55C151.584 286.614 152.145 313.695 150.937 338.797Z" fill="#363B3D"/>
<path d="M85.7137 71.1206L119.102 40.4651L100.078 23.8887L69.9686 56.1803L85.7137 71.1206Z" fill="#514F59"/>
<path d="M86.6197 67.9345L115.522 41.4123L99.0863 27.0317L72.9883 54.9748L86.6197 67.9345Z" fill="#3E3C43"/>
<path d="M66.7334 71.6372C66.7334 71.6372 71.7804 70.4747 70.2706 64.5761C68.804 58.7206 71.0902 57.3428 71.0902 57.3428L88.6039 73.8761C88.6039 73.8761 80.1059 81.8844 77.5177 82.1858C74.9726 82.5303 64.1451 74.8233 66.7334 71.6372Z" fill="#EFA986"/>
<path d="M88.6471 73.9191C88.6471 73.9191 99.302 67.2885 100.294 66.2552C101.286 65.2649 106.075 60.8302 108.016 58.2038C109.957 55.5774 102.192 56.2232 99.9059 58.9357C97.6628 61.6482 95.6353 62.4232 94.0393 63.026C92.4863 63.6288 83.0393 64.1885 81.1412 66.858C79.3726 69.6135 88.6471 73.9191 88.6471 73.9191Z" fill="#EFA986"/>
<path d="M74.4118 53.8121C74.4118 53.8121 75.6628 55.4482 76.698 53.5538C77.7333 51.6593 77.6471 47.3107 75.0588 48.3871C72.4706 49.4204 74.4118 53.8121 74.4118 53.8121Z" fill="#EFA986"/>
<path d="M77.6902 48.043C77.6902 48.043 78.1216 51.2721 79.7608 49.8082C81.3569 48.3444 82.9961 43.0055 80.1922 43.1346C77.3882 43.2638 77.6902 48.043 77.6902 48.043Z" fill="#EFA986"/>
<path d="M82.3059 43.3496C82.3059 43.3496 82.3059 47.2246 84.1608 46.1051C85.5843 45.2871 87.5686 38.3121 84.7647 38.4412C81.9608 38.5704 82.3059 43.3496 82.3059 43.3496Z" fill="#EFA986"/>
<path d="M232.035 268.229C232.035 268.229 238.247 272.535 242 271.717C245.753 270.942 250.973 271.587 252.612 271.846C254.812 272.233 262.318 271.071 261.455 273.654C260.635 276.237 249.118 276.108 246.659 276.496C244.2 276.926 251.835 283.298 252.094 285.58C252.353 287.862 238.333 300.047 233.718 295.053C229.102 290.058 228.196 281.576 227.204 280.844C226.169 280.112 223.667 277.357 223.667 277.357L232.035 268.229Z" fill="#EFA986"/>
<path d="M251.361 284.203C251.361 284.203 264.216 300.478 264 302.286C263.741 304.137 262.663 304.826 261.369 303.362C260.075 301.898 248.384 288.035 248.384 288.035C248.384 288.035 259.729 309.993 259.902 311.5C259.988 312.404 257.918 313.825 257.141 313.093C256.365 312.361 243.682 291.35 243.682 291.35C243.682 291.35 254.208 311.887 253.949 313.222C253.69 314.385 251.49 315.332 250.584 313.868C249.678 312.404 238.635 293.976 238.635 293.976C238.635 293.976 245.192 309.476 244.243 310.553C243.639 311.198 241.914 312.533 240.361 308.486C238.808 304.439 233.977 295.311 233.977 295.311L251.361 284.203Z" fill="#EFA986"/>
<path d="M241.31 270.338C241.31 270.338 228.412 280.284 223.322 278.949C218.231 277.615 175.741 220.695 172.333 210.749C168.926 200.804 165.216 171.354 165.216 171.354C165.216 171.354 154.259 200.933 152.792 215.184C151.326 229.393 145.373 255.484 145.373 255.484L58.2785 260.608C58.2785 260.608 54.8706 255.441 56.3373 244.376C57.8039 233.354 61.7726 207.047 59.2275 192.881C56.6824 178.716 58.8824 154.39 58.8824 154.39C58.8824 154.39 22.4745 165.024 18.2039 166.187C13.9334 167.349 2.93335 160.891 0.0431572 154.261C-2.84704 147.63 66.302 67.8911 66.302 67.8911L82.2196 81.1953L62.5922 113.917C63.2392 113.487 67.3804 111.894 72.9451 109.827C86.4902 104.79 108.447 97.0397 108.447 97.0397C108.447 97.0397 139.376 96.5231 141.749 96.8675C144.122 97.2119 174.706 111.765 179.106 115.381C183.549 118.998 195.757 194.173 198.129 199.124C200.545 204.119 241.31 270.338 241.31 270.338Z" fill="#EAD8CF"/>
<path d="M58.3216 260.608C58.3216 260.608 56.1647 262.761 54.7843 272.491C54.7843 272.491 137.09 269.52 146.02 266.55C146.02 266.55 147.227 255.786 145.416 255.441C143.388 255.097 58.3216 260.608 58.3216 260.608Z" fill="#4A5156"/>
<path d="M141.792 96.8675C140.929 100.527 112.416 121.84 112.416 121.84C112.416 121.84 105.945 98.03 108.49 96.9967C109.482 96.6092 110.043 94.7578 110.345 92.6481C110.604 90.6245 110.69 88.3856 110.647 86.9647C110.647 86.0606 110.604 85.5008 110.604 85.5008C110.604 85.5008 114.443 82.1425 119.318 78.1383C127.816 71.1633 139.42 62.2939 139.118 66.1689C139.118 66.3842 139.075 66.5995 138.988 66.9008C136.357 75.512 141.792 96.8675 141.792 96.8675Z" fill="#EFA986"/>
<path d="M109.267 96.3081L101.2 99.8817L104.737 131.657L112.373 121.883L109.267 96.3081Z" fill="#D5BCB1"/>
<path d="M141.404 95.2314L112.373 121.883L116.126 132.69L150.894 100.57L141.404 95.2314Z" fill="#D5BCB1"/>
<path d="M126.608 255.958C126.608 255.958 127.514 267.023 127.427 269.908L131.267 269.477C131.267 269.477 131.18 257.809 130.706 255.829L126.608 255.958Z" fill="#5E686D"/>
<path d="M65.2236 259.876C65.2236 259.876 62.9804 269.693 62.6353 273.439L66.6902 273.223C66.6902 273.223 68.502 260.866 69.0628 259.618L65.2236 259.876Z" fill="#5E686D"/>
<path d="M89.8549 257.982C89.8549 257.896 89.8118 254.494 90.2 240.243C90.3726 234.43 90.8471 218.672 92.9608 209.2C96.0236 195.164 96.2824 188.662 95.1608 176.607C93.3059 156.328 109.439 131.398 109.526 131.14L111.596 131.657C111.51 131.915 96.2824 156.414 98.0942 176.305C99.2157 188.705 98.8275 196.455 95.7216 210.621C93.7373 219.619 93.4353 234.56 93.3059 240.157C92.9608 253.978 92.7451 257.637 92.7883 257.724L89.8549 257.982Z" fill="#BFA799"/>
<path d="M114.227 132.389C114.227 132.389 112.071 171.009 86.4039 176.65C60.7373 182.29 26.6157 203.947 16.5647 216.046L4.31372 231.761V214.237C4.31372 214.237 9.40391 185.39 85.3686 173.421C85.3686 173.421 107.153 172 106.376 131.484C106.376 131.441 114.357 130.709 114.227 132.389Z" fill="#E8744E"/>
<path d="M133.769 75.168C133.726 75.2541 132.518 76.6749 130.577 78.7416C126.392 83.0902 118.628 90.1944 110.345 92.6485C110.604 90.6249 110.69 88.386 110.647 86.9652C109.828 86.8791 109.008 86.7069 108.188 86.4916C110.69 82.918 114.184 79.2152 114.184 79.2152L119.275 78.1388L133.769 75.168Z" fill="#A77961"/>
<path d="M139.118 66.2121C136.616 70.6038 134.459 73.919 133.769 75.1676C133.337 75.9857 132.173 77.2774 130.576 78.7413C126.133 82.7024 118.11 87.7829 110.647 87.0079C109.827 86.9218 109.008 86.7496 108.188 86.5343C105.212 85.6732 101.761 84.0371 100.122 80.119C87.051 49.4204 100.208 26.2135 100.208 26.2135C100.208 26.2135 143.431 17.8176 149.039 30.7343C153.008 39.776 145.027 55.9218 139.118 66.2121Z" fill="#EFA986"/>
<path d="M100.251 26.2136C100.251 26.2136 94.1686 17.4733 93.7804 10.1538C93.3922 2.9205 94.2549 0.939941 94.2549 0.939941C94.2549 0.939941 106.592 4.64272 112.933 4.21216C119.275 3.78161 143.863 2.96355 147.141 7.26911C147.141 7.26911 156.071 5.97744 157.322 20.358C159.263 43.1774 140.627 63.4997 140.627 63.4997C140.627 63.4997 142.094 49.033 138.945 46.8372C135.753 44.6413 132.518 49.033 132.518 49.033L128.808 48.8608C128.808 48.8608 137.737 28.7538 125.4 26.9886C113.063 25.1802 107.239 28.0219 100.251 26.2136Z" fill="#525255"/>
<path d="M133.208 43.1345C134.373 36.7192 146.624 35.1692 145.243 41.8859C143.906 48.6025 137.435 54.6734 134.718 54.2428C132 53.8122 132.302 48.0428 133.208 43.1345Z" fill="#EFA986"/>
<path d="M105.298 130.925C105.298 130.925 110.173 135.015 115.737 131.656C115.737 131.656 113.624 122.227 112.373 121.883C111.122 121.538 104.694 129.202 105.298 130.925Z" fill="#E8744E"/>
<path d="M100.035 257.336C100.035 257.336 87.9138 257.81 83.8589 258.455L84.3765 271.544L100.769 270.597L100.035 257.336Z" fill="#E8744E"/>
<path d="M72.9882 109.871L45.6392 140.526L62.6353 114.004C63.2824 113.53 67.4235 111.894 72.9882 109.871Z" fill="#D5BBAF"/>
<path d="M127.255 47.4399C128.29 53.0802 133.812 56.8691 139.635 55.8788C145.459 54.8885 149.298 49.5066 148.306 43.8233C147.271 38.183 141.749 34.3941 135.926 35.3844C130.102 36.4177 126.22 41.7996 127.255 47.4399Z" fill="#807167"/>
<path d="M113.58 72.111L112.847 70.0874C131.612 63.586 138.686 46.2777 138.773 46.1055L140.843 46.8805C140.498 47.6555 133.294 65.2652 113.58 72.111Z" fill="#807167"/>
<path d="M109.353 72.7133C109.655 74.4786 111.38 75.6411 113.192 75.3397C115.004 75.0383 116.212 73.3591 115.867 71.5938C115.565 69.8286 113.839 68.6661 112.027 68.9674C110.216 69.2688 109.008 70.948 109.353 72.7133Z" fill="#807167"/>
</g>
<defs>
<clipPath id="clip0">
<rect width="264" height="341" fill="white" transform="translate(0 0.939941)"/>
</clipPath>
</defs>
</svg>
