<svg width="54" height="59" viewBox="0 0 54 59" fill="none" xmlns="http://www.w3.org/2000/svg">
<path d="M13.7031 38.6553C12.03 37.1964 9.49991 37.3698 8.04103 39.0327L0.991497 47.0923C-0.46738 48.7654 -0.293949 51.2955 1.36897 52.7543L6.23529 57.0085C8.87759 59.0285 11.2546 58.7429 11.2955 58.7429C12.3054 58.5592 14.3152 58.9265 15.7843 58.4572C21.5178 56.6413 29.761 52.9788 39.1569 42.2361C48.5529 31.4935 51.6135 22.2097 53.0928 15.7825C53.5519 13.7829 53.0418 11.4671 53.1744 10.2531C53.1744 10.2123 53.256 7.85561 51.2156 6.07027C51.0626 5.93765 50.9504 5.82543 50.8688 5.72341L47.4919 2.70364L46.0943 1.59162C44.4211 0.132748 41.8911 0.306179 40.4322 1.96909L33.3826 10.0286C31.9238 11.7017 32.0972 14.2318 33.7601 15.6907L39.8303 20.9957C37.5042 25.607 34.9945 29.8714 30.6791 34.7989C26.9146 39.1041 23.7418 41.675 20.1303 44.2459L13.7031 38.6553Z" fill="#88C6B4"/>
<path d="M5.47014 56.3454L6.23528 57.0085C8.87758 59.0285 11.2546 58.7428 11.2954 58.7428C12.3054 58.5592 14.3152 58.9265 15.7843 58.4572C21.5178 56.6412 29.7609 52.9787 39.1569 42.2361C48.5529 31.4935 51.6135 22.2097 53.0928 15.7825C53.5519 13.7829 53.0418 11.4671 53.1744 10.253C53.1744 10.2326 53.1948 9.77353 53.0418 9.12061C50.3178 35.7579 26.1291 50.6017 5.47014 56.3454Z" fill="#AAD4C8"/>
</svg>
