<svg width="195" height="196" viewBox="0 0 195 196" fill="none" xmlns="http://www.w3.org/2000/svg">
<path d="M187.449 169.087L186.648 168.283L167.021 187.942L167.508 188.43L172.715 193.653C176.062 197.011 183.157 195.317 188.564 189.865C193.972 184.412 195.66 177.295 192.341 173.966L187.449 169.087Z" fill="#616E7D"/>
<path d="M181.841 163.519L162.215 183.206L167.021 187.942L186.648 168.254L186.075 167.709L181.841 163.519Z" fill="#AAD4C8"/>
<path d="M77.4447 0.653809C35.2168 0.653809 0.97113 35.0062 0.97113 77.3656C0.97113 119.725 35.2168 154.077 77.4447 154.077C93.0941 154.077 107.628 149.342 119.758 141.249L162.186 183.178L181.813 163.491L139.671 121.877C148.625 109.336 153.918 93.9821 153.918 77.3943C153.918 35.0062 119.701 0.653809 77.4447 0.653809ZM78.4746 131.319C48.7778 131.319 24.6885 107.184 24.6885 77.3656C24.6885 47.5763 48.7778 23.4119 78.4746 23.4119C108.171 23.4119 132.261 47.5476 132.261 77.3656C132.261 107.155 108.2 131.319 78.4746 131.319Z" fill="#616E7D"/>
</svg>
